<svg id="visual" viewBox="0 0 900 450" width="900" height="450" xmlns="http://www.w3.org/2000/svg" xmlns:xlink="http://www.w3.org/1999/xlink" version="1.1"><rect x="0" y="0" width="900" height="450" fill="#fff"></rect><defs><linearGradient id="grad1_0" x1="50%" y1="100%" x2="100%" y2="0%"><stop offset="10%" stop-color="#ffffff" stop-opacity="1"></stop><stop offset="90%" stop-color="#ffffff" stop-opacity="1"></stop></linearGradient></defs><defs><linearGradient id="grad2_0" x1="0%" y1="100%" x2="50%" y2="0%"><stop offset="10%" stop-color="#ffffff" stop-opacity="1"></stop><stop offset="90%" stop-color="#ffffff" stop-opacity="1"></stop></linearGradient></defs><g transform="translate(900, 450)"><path d="M-225 0C-183.9 -15.5 -142.7 -31 -132.1 -54.7C-121.5 -78.4 -141.4 -110.4 -139.3 -139.3C-137.2 -168.2 -113 -194.1 -86.1 -207.9C-59.2 -221.7 -29.6 -223.3 0 -225L0 0Z" fill="#063806"></path></g><g transform="translate(0, 0)"><path d="M225 0C190.5 21 156 41.9 135.8 56.3C115.6 70.6 109.8 78.2 106.8 106.8C103.7 135.3 103.4 184.7 86.1 207.9C68.8 231.1 34.4 228 0 225L0 0Z" fill="#063806"></path></g></svg>